{"glyphs":{":":{"x_min":0,"x_max":500,"ha":500,"o":""},"$":{"x_min":0,"x_max":500,"ha":500,"o":"m 233 85 q 269 85 294 90 q 318 96 332 106 q 346 117 352 132 q 358 146 358 163 q 358 188 346 206 q 334 223 314 236 q 293 250 267 260 q 241 271 213 281 q 186 291 160 303 q 133 315 112 332 q 92 350 79 374 q 66 399 66 435 q 66 499 104 539 q 142 579 214 590 l 214 693 l 288 693 l 288 593 q 328 591 362 584 q 395 576 415 568 l 398 498 q 377 506 345 514 q 313 523 264 523 q 210 523 182 503 q 153 483 153 445 q 153 424 162 410 q 170 396 186 385 q 202 374 224 365 q 245 356 272 346 q 306 333 338 318 q 370 304 394 284 q 418 264 432 236 q 447 208 447 169 q 447 110 408 69 q 369 28 288 18 l 288 -97 l 214 -97 l 214 15 q 151 17 112 29 q 73 41 54 52 l 76 121 q 103 108 140 96 q 177 85 233 85 z"},"?":{"x_min":0,"x_max":500,"ha":500,"o":"m 185 211 l 184 230 q 184 273 206 304 q 228 336 254 363 q 281 390 303 417 q 325 444 325 479 q 325 517 301 540 q 277 563 230 563 q 201 563 172 556 q 144 549 115 533 l 92 597 q 122 614 160 624 q 198 633 241 633 q 292 633 324 619 q 357 605 376 584 q 395 562 402 536 q 410 510 410 486 q 410 456 398 432 q 387 409 370 388 q 353 367 333 348 q 313 329 296 308 q 279 288 268 264 q 256 240 256 211 z m 228 -12 q 200 -12 180 6 q 161 25 161 56 q 161 87 180 106 q 200 124 228 124 q 255 124 275 106 q 295 87 295 56 q 295 25 275 6 q 255 -12 228 -12 z"},"<":{"x_min":0,"x_max":500,"ha":500,"o":"m 141 255 l 458 124 l 435 55 l 49 219 l 49 290 l 435 454 l 458 385 z"},"'":{"x_min":0,"x_max":500,"ha":500,"o":"m 293 679 l 293 634 q 293 612 292 584 q 290 555 288 524 q 285 494 282 464 q 279 435 275 412 l 224 412 q 220 435 217 464 q 214 494 212 524 q 209 555 208 584 q 206 613 206 635 l 206 679 z"},"=":{"x_min":0,"x_max":500,"ha":500,"o":"m 46 203 l 455 203 l 455 132 l 46 132 z m 46 393 l 455 393 l 455 322 l 46 322 z"},"a":{"x_min":0,"x_max":500,"ha":500,"o":"m 255 59 q 286 59 310 61 q 335 63 351 66 l 351 204 q 335 209 312 212 q 290 215 265 215 q 242 215 220 212 q 198 208 181 199 q 164 190 153 176 q 142 161 142 139 q 142 94 172 76 q 203 59 255 59 z m 247 475 q 299 475 334 462 q 370 449 392 426 q 414 403 423 370 q 432 337 432 298 l 432 8 q 403 3 356 -4 q 308 -11 258 -11 q 220 -11 184 -4 q 148 2 120 18 q 92 35 75 64 q 58 93 58 138 q 58 178 76 206 q 93 233 120 250 q 148 267 184 274 q 219 282 255 282 q 304 282 351 271 l 351 294 q 351 315 346 334 q 342 354 330 370 q 317 386 296 396 q 274 405 240 405 q 197 405 165 399 q 133 393 116 387 l 106 455 q 123 463 162 469 q 202 475 247 475 z"},"L":{"x_min":0,"x_max":500,"ha":500,"o":"m 460 70 l 460 0 l 91 0 l 91 619 l 173 619 l 173 70 z"},"3":{"x_min":0,"x_max":500,"ha":500,"o":"m 212 60 q 291 60 324 92 q 358 123 358 176 q 358 210 344 233 q 330 256 307 270 q 284 284 254 290 q 224 296 191 296 l 170 296 l 170 363 l 199 363 q 221 363 244 368 q 268 372 288 384 q 307 395 319 415 q 331 435 331 466 q 331 517 300 538 q 268 560 226 560 q 183 560 153 548 q 123 535 103 522 l 71 585 q 92 600 134 616 q 177 633 229 633 q 278 633 313 621 q 348 609 370 587 q 393 565 404 536 q 415 506 415 471 q 415 422 390 388 q 364 354 324 336 q 372 322 407 282 q 442 241 442 174 q 442 134 428 100 q 415 65 388 40 q 360 15 316 1 q 273 -13 213 -13 q 190 -13 166 -10 q 141 -6 120 0 q 99 5 82 10 q 66 16 59 19 l 75 90 q 91 82 126 71 q 161 60 212 60 z"},";":{"x_min":0,"x_max":500,"ha":500,"o":""},"J":{"x_min":0,"x_max":500,"ha":500,"o":"m 127 549 l 127 619 l 420 619 l 420 199 q 420 155 410 116 q 401 77 378 48 q 354 20 314 4 q 275 -13 215 -13 q 155 -13 114 4 q 73 21 54 37 l 87 104 q 106 90 138 74 q 169 58 211 58 q 275 58 306 92 q 338 126 338 207 l 338 549 z"},"V":{"x_min":0,"x_max":500,"ha":500,"o":"m 102 619 q 114 556 132 482 q 151 407 172 332 q 192 258 213 190 q 234 122 252 71 q 268 122 290 191 q 311 260 332 334 q 353 409 372 483 q 390 557 402 619 l 488 619 q 480 579 462 512 q 444 444 419 360 q 394 277 364 184 q 333 90 300 0 l 198 0 q 167 90 138 183 q 108 276 83 360 q 58 443 40 511 q 22 579 13 619 z"},"\"":{"x_min":0,"x_max":500,"ha":500,"o":"m 206 679 l 206 634 q 206 590 201 534 q 196 477 188 430 l 146 430 q 139 477 134 534 q 129 590 129 635 l 129 679 z m 371 679 l 371 634 q 371 590 366 534 q 361 477 354 430 l 312 430 q 304 477 299 534 q 294 590 294 635 l 294 679 z"},"7":{"x_min":0,"x_max":500,"ha":500,"o":"m 155 0 q 160 71 180 150 q 201 230 230 304 q 259 379 294 442 q 329 506 363 547 l 63 547 l 63 619 l 455 619 l 455 550 q 425 515 390 456 q 355 397 324 324 q 292 250 269 166 q 246 83 240 0 z"},"S":{"x_min":0,"x_max":500,"ha":500,"o":"m 234 58 q 297 58 330 82 q 363 106 363 154 q 363 183 351 204 q 339 224 319 240 q 299 255 274 266 q 249 278 223 288 q 193 300 166 315 q 138 330 116 350 q 95 370 82 397 q 70 424 70 461 q 70 542 121 588 q 172 633 263 633 q 288 633 312 630 q 337 626 358 621 q 379 616 396 609 q 412 602 422 595 l 396 526 q 376 538 341 550 q 306 562 263 562 q 218 562 185 540 q 152 517 152 472 q 152 446 162 428 q 171 410 188 396 q 204 383 226 372 q 248 361 274 350 q 312 334 344 318 q 375 302 398 280 q 420 258 432 228 q 445 198 445 155 q 445 74 390 30 q 336 -13 234 -13 q 201 -13 172 -8 q 143 -4 120 3 q 98 10 81 17 q 64 24 55 30 l 80 98 q 100 87 139 72 q 178 58 234 58 z"},"}":{"x_min":0,"x_max":500,"ha":500,"o":"m 421 235 l 381 235 q 364 235 352 228 q 339 220 330 208 q 322 195 318 180 q 313 164 313 148 l 313 -13 q 313 -50 306 -78 q 298 -106 280 -126 q 261 -145 230 -155 q 200 -165 154 -165 l 73 -165 l 73 -100 l 158 -100 q 200 -100 218 -81 q 235 -62 235 -12 l 235 126 q 235 193 255 224 q 275 256 301 267 q 275 279 255 312 q 235 345 235 408 l 235 546 q 235 596 217 615 q 199 634 157 634 l 73 634 l 73 699 l 154 699 q 200 699 230 689 q 261 679 280 660 q 298 640 306 612 q 313 584 313 547 l 313 386 q 313 371 317 356 q 321 340 330 328 q 338 315 350 307 q 363 299 380 299 l 421 299 z"},"Z":{"x_min":0,"x_max":500,"ha":500,"o":"m 447 555 q 415 511 376 450 q 336 390 295 324 q 254 258 216 192 q 177 125 148 70 l 455 70 l 455 0 l 54 0 l 54 54 q 85 117 122 184 q 160 250 199 314 q 238 378 277 438 q 316 498 352 549 l 69 549 l 69 619 l 447 619 z"},"x":{"x_min":0,"x_max":500,"ha":500,"o":"m 380 0 q 370 20 356 44 q 341 68 324 94 q 307 119 288 144 q 270 169 252 191 q 234 168 214 143 q 194 118 176 92 q 157 67 141 43 q 125 19 114 0 l 29 0 q 62 60 110 124 q 157 187 203 244 l 36 464 l 129 464 l 254 302 l 369 464 l 457 464 l 304 249 q 349 190 394 126 q 440 62 472 0 z"},")":{"x_min":0,"x_max":500,"ha":500,"o":"m 115 -107 q 208 -35 258 59 q 307 153 307 264 q 307 320 296 370 q 284 420 260 466 q 236 512 200 555 q 163 598 113 641 l 158 701 q 273 616 330 504 q 386 391 386 266 q 386 204 372 144 q 357 84 328 28 q 300 -27 258 -76 q 215 -126 158 -167 l 114 -107 z"},"&":{"x_min":0,"x_max":500,"ha":500,"o":"m 272 283 q 289 263 308 242 q 326 222 345 199 q 353 227 359 260 q 365 293 368 333 l 437 324 q 431 266 420 220 q 408 175 391 138 q 414 106 435 72 q 456 38 473 0 l 386 0 q 369 35 348 67 q 316 27 276 10 q 237 -8 194 -8 q 156 -8 126 4 q 96 17 75 39 q 54 61 42 90 q 31 119 31 151 q 31 198 56 246 q 80 294 133 335 q 107 370 91 406 q 75 442 75 480 q 75 519 88 548 q 100 577 121 596 q 142 614 170 624 q 197 633 226 633 q 252 633 277 625 q 302 617 321 600 q 340 584 352 560 q 363 536 363 505 q 363 459 333 410 q 303 362 238 321 z m 172 285 q 143 259 128 225 q 114 191 114 159 q 114 120 134 94 q 154 69 183 62 q 212 56 246 70 q 280 85 308 125 q 275 170 240 208 q 204 247 172 285 z m 288 496 q 288 532 268 550 q 249 568 224 568 q 198 568 176 548 q 153 527 153 486 q 153 457 162 432 q 171 407 200 369 q 248 399 268 433 q 288 467 288 496 z"},"_":{"x_min":0,"x_max":500,"ha":500,"o":"m 8 -95 l 492 -95 l 492 -165 l 8 -165 z"},"v":{"x_min":0,"x_max":500,"ha":500,"o":"m 470 464 q 452 399 429 336 q 406 274 382 214 q 358 155 333 101 q 308 47 285 0 l 210 0 q 163 94 115 214 q 67 334 30 464 l 120 464 q 132 420 148 371 q 163 322 180 273 q 197 224 214 178 q 232 133 249 97 q 266 133 284 178 q 303 224 321 273 q 339 322 356 371 q 372 420 384 464 z"},"O":{"x_min":0,"x_max":500,"ha":500,"o":"m 29 310 q 29 393 45 454 q 61 515 90 554 q 119 594 160 614 q 200 633 250 633 q 299 633 340 614 q 381 594 410 554 q 439 515 456 454 q 472 393 472 310 q 472 227 456 166 q 439 105 410 65 q 381 25 340 6 q 299 -13 250 -13 q 200 -13 160 6 q 119 25 90 65 q 61 105 45 166 q 29 227 29 310 z m 113 310 q 113 188 146 123 q 179 58 248 58 q 318 58 353 123 q 388 188 388 310 q 388 432 353 497 q 318 562 248 562 q 179 562 146 497 q 113 432 113 310 z"},"(":{"x_min":0,"x_max":500,"ha":500,"o":"m 384 641 q 291 569 242 475 q 193 381 193 270 q 193 214 204 164 q 216 114 240 68 q 263 22 300 -21 q 336 -64 386 -107 l 341 -167 q 226 -82 170 30 q 113 143 113 268 q 113 392 170 505 q 227 618 341 701 l 385 641 z"},"C":{"x_min":0,"x_max":500,"ha":500,"o":"m 460 26 q 425 6 386 -4 q 346 -13 301 -13 q 246 -13 200 6 q 153 26 119 66 q 85 105 66 166 q 46 227 46 310 q 46 389 66 449 q 87 509 122 550 q 157 591 204 612 q 251 633 304 633 q 341 633 380 623 q 418 613 455 590 l 431 522 q 365 560 307 560 q 266 560 234 542 q 201 525 178 492 q 155 459 142 413 q 130 367 130 310 q 130 246 144 199 q 157 152 181 121 q 205 90 238 75 q 272 60 311 60 q 340 60 372 68 q 404 75 438 94 z"},"W":{"x_min":0,"x_max":500,"ha":500,"o":"m 153 0 l 76 0 q 67 61 60 134 q 54 208 48 288 q 43 368 39 452 q 35 536 32 619 l 112 619 l 123 102 l 213 384 l 285 384 l 377 102 l 388 619 l 468 619 q 465 535 460 451 q 456 367 450 288 q 444 208 437 135 q 430 62 422 0 l 346 0 l 249 308 z"},"A":{"x_min":0,"x_max":500,"ha":500,"o":"m 404 0 l 367 162 l 129 162 l 93 0 l 9 0 q 26 66 47 143 q 68 220 92 301 q 117 382 144 464 q 171 545 201 619 l 303 619 q 332 545 358 464 q 385 382 408 301 q 432 220 453 143 q 474 66 491 0 z m 249 547 q 226 484 199 401 q 172 318 148 230 l 348 230 q 325 320 298 404 q 272 487 249 547 z"},"f":{"x_min":0,"x_max":500,"ha":500,"o":"m 161 0 l 161 395 l 63 395 l 63 464 l 161 464 l 161 506 q 161 560 176 596 q 191 631 216 653 q 240 675 272 684 q 305 693 341 693 q 377 693 414 685 q 450 677 482 666 l 467 595 q 445 606 412 614 q 379 622 345 622 q 324 622 306 616 q 287 611 273 598 q 259 584 251 562 q 243 539 243 505 l 243 464 l 430 464 l 430 395 l 243 395 l 243 0 z"},"Q":{"x_min":0,"x_max":500,"ha":500,"o":"m 29 309 q 29 392 45 453 q 61 514 90 554 q 119 593 160 612 q 200 632 250 632 q 299 632 340 612 q 381 593 410 554 q 439 514 456 453 q 472 392 472 309 q 472 235 459 178 q 446 122 422 82 q 398 42 364 19 q 330 -4 289 -11 q 292 -31 306 -46 q 320 -60 342 -70 q 363 -81 390 -88 q 418 -95 448 -99 l 429 -165 q 388 -158 350 -147 q 313 -136 283 -118 q 253 -100 232 -74 q 211 -48 204 -10 q 123 7 76 84 q 29 162 29 309 z m 113 309 q 113 187 146 122 q 179 57 248 57 q 318 57 353 122 q 388 187 388 309 q 388 431 353 496 q 318 561 248 561 q 179 561 146 496 q 113 431 113 309 z"},"w":{"x_min":0,"x_max":500,"ha":500,"o":"m 343 0 q 328 34 317 62 q 306 90 296 118 q 285 146 274 176 q 264 207 250 246 q 236 207 225 176 q 214 146 204 118 q 193 90 182 62 q 170 34 155 0 l 93 0 q 65 123 46 244 q 28 364 19 464 l 97 464 q 100 425 104 388 q 107 350 112 309 q 117 268 124 220 q 130 172 138 112 q 154 152 165 182 q 176 212 185 239 q 194 266 202 294 q 211 322 221 357 l 283 357 q 293 322 301 294 q 309 266 318 239 q 327 212 337 182 q 347 152 362 113 q 371 168 378 215 q 385 262 390 304 q 395 345 399 384 q 403 423 406 464 l 481 464 q 476 414 469 357 q 462 300 452 240 q 442 180 430 118 q 418 57 405 0 z"},"-":{"x_min":0,"x_max":500,"ha":500,"o":"m 140 293 l 360 293 l 360 215 l 140 215 z"},"E":{"x_min":0,"x_max":500,"ha":500,"o":"m 91 0 l 91 619 l 438 619 l 438 549 l 173 549 l 173 359 l 405 359 l 405 289 l 173 289 l 173 70 l 460 70 l 460 0 z"},"s":{"x_min":0,"x_max":500,"ha":500,"o":"m 351 116 q 351 141 330 157 q 310 173 280 185 q 249 197 213 208 q 177 220 146 237 q 116 254 96 279 q 75 304 75 344 q 75 400 120 438 q 166 475 263 475 q 301 475 342 470 q 382 464 411 455 l 396 381 q 388 385 374 390 q 360 394 342 398 q 324 401 304 403 q 283 405 264 405 q 156 405 156 346 q 156 325 176 310 q 197 296 228 284 q 259 272 295 260 q 331 247 362 229 q 393 211 414 186 q 434 160 434 121 q 434 58 385 24 q 336 -11 230 -11 q 182 -11 142 -3 q 102 5 66 21 l 82 96 q 117 80 156 70 q 194 59 238 59 q 351 59 351 116 z"},">":{"x_min":0,"x_max":500,"ha":500,"o":"m 49 385 l 72 454 l 458 290 l 458 219 l 72 55 l 49 124 l 366 255 z"},"l":{"x_min":0,"x_max":500,"ha":500,"o":"m 338 -11 q 294 -11 265 1 q 236 13 219 37 q 202 61 195 96 q 188 132 188 179 l 188 618 l 54 618 l 54 688 l 270 688 l 270 179 q 270 144 274 122 q 279 100 288 86 q 298 73 312 68 q 326 63 345 63 q 374 63 399 70 q 424 77 438 85 l 450 15 q 444 12 433 8 q 422 3 407 -1 q 392 -5 374 -8 q 357 -11 338 -11 z"},"8":{"x_min":0,"x_max":500,"ha":500,"o":"m 449 161 q 449 83 400 35 q 350 -13 249 -13 q 191 -13 153 2 q 115 18 92 42 q 70 67 60 97 q 51 127 51 156 q 51 209 80 250 q 109 291 149 316 q 64 364 64 463 q 64 497 77 528 q 90 559 114 582 q 138 605 172 619 q 207 633 250 633 q 300 633 336 618 q 371 603 393 580 q 415 556 425 528 q 435 499 435 472 q 435 419 408 380 q 381 342 346 319 q 449 270 449 161 z m 131 155 q 131 139 137 122 q 143 104 157 89 q 171 74 194 64 q 217 55 250 55 q 281 55 304 64 q 326 72 340 86 q 355 101 362 119 q 369 137 369 155 q 369 212 328 242 q 287 273 215 289 q 175 267 153 234 q 131 201 131 155 z m 355 472 q 355 485 349 502 q 343 518 330 532 q 318 545 298 554 q 278 564 250 564 q 221 564 202 555 q 182 546 169 532 q 156 519 150 502 q 145 486 145 470 q 145 429 174 394 q 204 358 272 342 q 310 364 332 394 q 355 424 355 472 z"},"\\":{"x_min":0,"x_max":500,"ha":500,"o":"m 70 699 l 153 699 l 430 -165 l 346 -165 z"},"e":{"x_min":0,"x_max":500,"ha":500,"o":"m 259 475 q 353 475 404 416 q 455 358 455 239 l 455 210 l 123 210 q 128 138 170 100 q 213 63 290 63 q 334 63 365 70 q 396 77 412 85 l 423 15 q 408 7 369 -2 q 330 -11 281 -11 q 221 -11 176 8 q 130 26 100 58 q 70 90 55 134 q 40 179 40 231 q 40 293 59 339 q 78 385 109 415 q 140 445 179 460 q 218 475 259 475 z m 371 277 q 371 336 340 370 q 309 405 258 405 q 229 405 206 394 q 182 383 165 365 q 148 347 138 324 q 128 301 125 277 z"},"b":{"x_min":0,"x_max":500,"ha":500,"o":"m 154 447 q 169 456 198 466 q 226 475 261 475 q 308 475 345 457 q 382 439 408 407 q 433 375 446 330 q 460 286 460 232 q 460 176 444 131 q 428 86 399 54 q 370 23 329 6 q 288 -11 238 -11 q 183 -11 140 -3 q 97 5 71 13 l 71 679 l 154 693 z m 154 72 q 173 67 192 64 q 211 62 228 62 q 297 62 336 104 q 375 147 375 232 q 375 268 368 300 q 361 331 346 354 q 331 376 308 389 q 284 402 251 402 q 222 402 195 390 q 168 379 154 366 z"},"%":{"x_min":0,"x_max":500,"ha":500,"o":"m 95 0 l 25 0 l 404 619 l 474 619 z m 18 477 q 18 553 47 592 q 76 632 127 632 q 178 632 207 592 q 236 553 236 477 q 236 401 207 361 q 178 321 127 321 q 76 321 47 361 q 18 401 18 477 z m 174 477 q 174 522 162 551 q 150 580 127 580 q 104 580 92 551 q 79 522 79 477 q 79 432 92 403 q 104 374 127 374 q 150 374 162 403 q 174 432 174 477 z m 265 142 q 265 218 294 258 q 322 297 373 297 q 424 297 453 258 q 482 218 482 142 q 482 66 453 26 q 424 -13 373 -13 q 322 -13 294 26 q 265 66 265 142 z m 421 142 q 421 187 408 216 q 396 245 373 245 q 350 245 338 216 q 326 187 326 142 q 326 97 338 68 q 350 39 373 39 q 396 39 408 68 q 421 97 421 142 z"},"m":{"x_min":0,"x_max":500,"ha":500,"o":"m 41 451 q 101 474 154 474 q 183 474 208 466 q 234 457 252 439 q 295 474 344 474 q 368 474 390 465 q 411 456 428 438 q 444 420 454 393 q 464 366 464 330 l 464 0 l 389 0 l 389 332 q 389 368 373 387 q 357 406 333 406 q 321 406 308 400 q 295 394 284 381 q 290 358 290 330 l 290 179 l 215 179 l 215 331 q 215 366 204 386 q 193 406 161 406 q 141 406 116 397 l 116 0 l 41 0 z"},"#":{"x_min":0,"x_max":500,"ha":500,"o":"m 321 0 l 246 0 l 277 163 l 166 163 l 135 0 l 60 0 l 91 163 l 27 163 l 27 230 l 104 230 l 134 389 l 27 389 l 27 455 l 148 455 l 179 619 l 254 619 l 223 455 l 334 455 l 364 619 l 439 619 l 409 455 l 473 455 l 473 389 l 396 389 l 365 230 l 473 230 l 473 163 l 352 163 z m 320 389 l 210 389 l 179 230 l 289 230 z"},",":{"x_min":0,"x_max":500,"ha":500,"o":"m 149 -79 q 167 -75 184 -71 q 202 -67 217 -60 q 232 -52 244 -40 q 256 -29 263 -9 q 231 -6 216 16 q 202 37 202 58 q 202 98 224 118 q 247 139 276 139 q 313 139 332 112 q 351 86 351 48 q 351 19 340 -12 q 328 -44 304 -72 q 281 -99 246 -118 q 211 -138 163 -144 z"},"n":{"x_min":0,"x_max":500,"ha":500,"o":"m 71 451 q 116 462 160 468 q 205 474 244 474 q 337 474 384 426 q 432 378 432 272 l 432 0 l 350 0 l 350 257 q 350 302 342 330 q 334 358 320 374 q 305 389 284 395 q 264 401 240 401 q 220 401 198 398 q 175 396 154 392 l 154 0 l 71 0 z"},"h":{"x_min":0,"x_max":500,"ha":500,"o":"m 71 0 l 71 679 l 154 693 l 154 457 q 174 465 199 470 q 224 474 248 474 q 301 474 336 458 q 372 443 393 415 q 414 387 423 348 q 432 309 432 262 l 432 0 l 350 0 l 350 244 q 350 330 326 366 q 302 401 240 401 q 214 401 190 396 q 165 390 154 385 l 154 0 z"},"z":{"x_min":0,"x_max":500,"ha":500,"o":"m 420 402 q 402 381 371 344 q 340 306 304 260 q 269 215 234 165 q 199 115 172 70 l 427 70 l 427 0 l 73 0 l 73 55 q 94 95 126 142 q 157 190 191 236 q 225 283 258 325 q 290 367 314 395 l 86 395 l 86 464 l 420 464 z"},"B":{"x_min":0,"x_max":500,"ha":500,"o":"m 204 -5 q 189 -5 169 -4 q 149 -3 129 -2 q 109 0 89 3 q 69 6 54 10 l 54 610 q 69 614 88 617 q 108 620 128 622 q 149 623 168 624 q 188 625 204 625 q 250 625 290 617 q 330 609 360 590 q 389 571 406 540 q 422 509 422 463 q 422 441 415 420 q 408 400 396 382 q 383 364 366 350 q 350 337 331 330 q 382 316 416 278 q 451 241 451 181 q 451 89 392 42 q 333 -5 204 -5 z m 136 289 l 136 68 q 138 67 158 66 q 179 64 210 64 q 241 64 270 69 q 298 74 320 88 q 342 101 356 123 q 369 145 369 180 q 369 211 356 232 q 344 253 324 266 q 303 278 276 284 q 249 289 220 289 z m 136 357 l 201 357 q 226 357 251 362 q 276 367 296 378 q 316 389 328 408 q 340 427 340 456 q 340 483 329 502 q 318 521 300 533 q 282 545 258 550 q 235 555 209 555 q 183 555 164 554 q 144 554 136 552 z"},"K":{"x_min":0,"x_max":500,"ha":500,"o":"m 470 619 q 421 546 362 474 q 304 402 236 330 q 268 303 304 267 q 340 231 374 188 q 409 146 440 98 q 470 50 491 0 l 398 0 q 373 46 344 90 q 315 134 282 172 q 250 210 216 242 q 181 273 146 296 l 146 0 l 64 0 l 64 619 l 146 619 l 146 343 q 211 410 270 483 q 330 556 375 619 z"},"R":{"x_min":0,"x_max":500,"ha":500,"o":"m 431 430 q 431 373 401 330 q 371 286 320 262 q 335 238 354 208 q 372 177 391 142 q 410 108 428 72 q 447 35 463 0 l 375 0 q 345 72 310 138 q 274 204 241 245 q 235 244 224 244 q 212 244 208 244 l 138 244 l 138 0 l 55 0 l 55 610 q 70 614 90 617 q 109 620 130 622 q 150 623 170 624 q 190 625 206 625 q 318 625 374 576 q 431 527 431 430 z m 213 554 q 190 554 168 554 q 147 553 138 551 l 138 312 l 191 312 q 227 312 256 317 q 284 322 304 336 q 325 349 336 372 q 347 396 347 434 q 347 470 336 493 q 325 516 307 530 q 289 543 264 548 q 240 554 213 554 z"},"T":{"x_min":0,"x_max":500,"ha":500,"o":"m 461 619 l 461 549 l 291 549 l 291 0 l 209 0 l 209 549 l 39 549 l 39 619 z"},"P":{"x_min":0,"x_max":500,"ha":500,"o":"m 235 625 q 290 625 332 611 q 373 597 400 572 q 428 546 442 511 q 455 476 455 433 q 455 336 398 284 q 341 231 227 231 l 155 231 l 155 0 l 73 0 l 73 610 q 91 614 112 617 q 134 620 156 622 q 177 624 198 624 q 218 625 235 625 z m 241 554 q 215 554 191 554 q 167 553 155 551 l 155 301 l 223 301 q 298 301 334 331 q 371 361 371 430 q 371 554 241 554 z"},"|":{"x_min":0,"x_max":500,"ha":500,"o":"m 212 699 l 289 699 l 289 -165 l 212 -165 z"},"t":{"x_min":0,"x_max":500,"ha":500,"o":"m 243 464 l 439 464 l 439 395 l 243 395 l 243 179 q 243 144 248 122 q 253 100 264 86 q 276 73 294 68 q 312 63 338 63 q 374 63 396 69 q 418 75 438 85 l 450 15 q 436 9 406 -1 q 375 -11 330 -11 q 278 -11 245 1 q 212 13 194 37 q 175 61 168 96 q 161 132 161 179 l 161 395 l 63 395 l 63 464 l 161 464 l 161 594 l 243 608 z"},"M":{"x_min":0,"x_max":500,"ha":500,"o":"m 251 311 l 347 619 l 424 619 q 444 473 452 320 q 461 167 468 0 l 388 0 q 387 54 386 117 q 385 180 384 247 q 382 314 380 383 q 379 452 377 517 l 287 235 l 215 235 l 123 517 q 122 452 120 384 q 119 315 118 248 q 116 180 114 117 q 113 54 112 0 l 32 0 q 35 76 39 156 q 43 236 48 315 q 54 394 62 471 q 69 548 78 619 l 154 619 z"},"g":{"x_min":0,"x_max":500,"ha":500,"o":"m 346 43 q 332 35 303 26 q 274 17 236 17 q 195 17 160 30 q 124 44 98 72 q 71 99 56 142 q 40 184 40 242 q 40 293 54 336 q 69 378 96 409 q 124 440 164 458 q 204 475 255 475 q 315 475 358 466 q 400 458 429 450 l 429 36 q 429 -72 374 -120 q 320 -168 210 -168 q 165 -168 128 -161 q 92 -154 64 -144 l 79 -71 q 105 -82 138 -89 q 172 -96 212 -96 q 284 -96 315 -67 q 346 -38 346 27 z m 346 391 q 334 395 313 398 q 292 402 256 402 q 192 402 158 358 q 125 314 125 241 q 125 201 134 172 q 144 144 160 126 q 177 107 198 98 q 219 90 243 90 q 274 90 302 99 q 329 108 346 120 z"},"j":{"x_min":0,"x_max":500,"ha":500,"o":"m 308 536 q 282 536 263 554 q 244 572 244 603 q 244 634 263 652 q 282 670 308 670 q 335 670 354 652 q 372 634 372 603 q 372 572 354 554 q 335 536 308 536 z m 114 395 l 114 464 l 384 464 l 384 5 q 384 -43 370 -76 q 357 -110 334 -131 q 312 -152 282 -161 q 253 -170 220 -170 q 182 -170 144 -162 q 105 -154 71 -137 l 96 -67 q 121 -79 152 -88 q 182 -96 210 -96 q 250 -96 276 -76 q 302 -55 302 4 l 302 395 z"},"i":{"x_min":0,"x_max":500,"ha":500,"o":"m 209 536 q 183 536 164 554 q 145 572 145 603 q 145 634 164 652 q 183 670 209 670 q 236 670 254 652 q 273 634 273 603 q 273 572 254 554 q 236 536 209 536 z m 188 395 l 54 395 l 54 464 l 270 464 l 270 179 q 270 110 289 86 q 308 63 346 63 q 375 63 400 70 q 424 77 438 85 l 450 15 q 444 12 433 8 q 422 3 408 -1 q 393 -5 376 -8 q 358 -11 339 -11 q 295 -11 266 1 q 237 13 220 37 q 202 61 195 96 q 188 132 188 179 z"},"y":{"x_min":0,"x_max":500,"ha":500,"o":"m 51 -87 q 60 -92 76 -95 q 93 -98 107 -98 q 156 -98 184 -76 q 211 -55 234 -6 q 178 100 129 222 q 80 343 48 464 l 138 464 q 148 424 162 378 q 175 331 192 282 q 209 233 228 184 q 248 134 270 89 q 286 135 300 180 q 314 225 326 270 q 338 316 350 364 q 362 411 375 464 l 461 464 q 429 334 390 212 q 350 90 305 -14 q 288 -54 268 -83 q 249 -112 226 -131 q 203 -150 174 -159 q 145 -168 108 -168 q 89 -168 66 -163 q 44 -158 36 -154 z"},"@":{"x_min":0,"x_max":500,"ha":500,"o":"m 468 63 q 438 51 407 46 q 376 42 350 42 q 315 42 285 54 q 255 65 232 89 q 210 113 198 150 q 185 188 185 240 q 185 333 233 382 q 281 430 358 430 q 366 430 374 430 q 381 429 389 428 q 389 491 363 528 q 337 565 280 565 q 245 565 216 548 q 187 531 166 494 q 145 456 133 397 q 121 338 121 254 q 121 191 133 132 q 145 74 170 30 q 196 -14 236 -40 q 275 -67 330 -67 q 370 -67 413 -54 l 421 -121 q 368 -135 323 -135 q 250 -135 196 -102 q 143 -70 108 -17 q 74 36 57 104 q 40 172 40 243 q 40 346 58 420 q 77 494 110 541 q 142 588 185 610 q 228 633 278 633 q 366 633 417 574 q 468 514 468 408 z m 265 240 q 265 220 268 197 q 270 174 279 154 q 288 135 304 122 q 321 108 350 108 q 358 108 368 109 q 378 110 389 113 l 389 358 q 380 361 372 362 q 363 363 355 363 q 312 363 288 330 q 265 296 265 240 z"},".":{"x_min":0,"x_max":500,"ha":500,"o":"m 324 64 q 324 34 304 11 q 284 -12 251 -12 q 217 -12 197 11 q 177 34 177 64 q 177 95 197 118 q 217 141 251 141 q 284 141 304 118 q 324 95 324 64 z"},"p":{"x_min":0,"x_max":500,"ha":500,"o":"m 375 231 q 375 312 337 356 q 299 401 238 401 q 204 401 184 398 q 165 395 154 391 l 154 98 q 168 85 195 74 q 222 63 251 63 q 284 63 308 76 q 331 89 346 112 q 361 134 368 164 q 375 195 375 231 z m 460 231 q 460 178 446 134 q 433 89 408 57 q 382 25 345 7 q 308 -11 261 -11 q 224 -11 196 -2 q 168 7 154 18 l 154 -165 l 71 -165 l 71 450 q 98 458 140 466 q 183 474 238 474 q 288 474 329 457 q 370 440 399 408 q 428 377 444 332 q 460 287 460 231 z"},"X":{"x_min":0,"x_max":500,"ha":500,"o":"m 384 0 q 373 27 358 61 q 343 95 326 131 q 309 167 290 203 q 270 239 249 270 q 214 214 179 142 q 144 69 114 0 l 25 0 q 58 74 102 160 q 146 247 196 327 l 35 619 l 126 619 l 247 382 l 377 619 l 466 619 l 302 330 q 350 252 395 168 q 440 84 475 0 z"},"*":{"x_min":0,"x_max":500,"ha":500,"o":"m 287 417 q 314 392 343 364 q 372 337 392 306 l 396 301 l 326 250 l 321 256 q 300 286 283 322 q 266 357 251 390 q 235 357 218 322 q 201 286 178 256 l 173 251 l 104 301 l 109 307 q 131 338 159 365 q 187 392 214 417 q 177 422 138 428 q 99 433 64 445 l 57 447 l 84 529 l 91 526 q 126 512 162 495 q 197 478 229 460 q 221 496 214 535 q 208 574 208 612 l 208 619 l 294 619 l 294 612 q 294 574 288 535 q 281 496 273 460 q 305 479 340 496 q 375 512 410 525 l 417 528 l 443 446 l 437 444 q 401 433 362 427 q 324 421 287 417 z"},"Y":{"x_min":0,"x_max":500,"ha":500,"o":"m 210 0 l 210 230 q 149 330 100 425 q 50 520 13 619 l 105 619 q 134 535 172 458 q 209 382 252 301 q 298 386 334 462 q 369 539 398 619 l 488 619 q 450 521 401 428 q 352 335 292 232 l 292 0 z"},"c":{"x_min":0,"x_max":500,"ha":500,"o":"m 49 231 q 49 294 69 340 q 89 386 124 416 q 159 446 206 460 q 252 475 305 475 q 339 475 372 470 q 406 466 444 454 l 425 383 q 392 395 364 398 q 337 402 309 402 q 273 402 241 392 q 209 383 186 362 q 162 342 148 310 q 134 277 134 231 q 134 187 147 156 q 160 124 184 104 q 207 83 240 73 q 273 63 313 63 q 345 63 374 66 q 404 70 439 82 l 451 13 q 416 0 380 -6 q 344 -11 302 -11 q 246 -11 200 4 q 153 20 120 50 q 86 80 68 126 q 49 171 49 231 z"},"!":{"x_min":0,"x_max":500,"ha":500,"o":"m 293 451 q 293 414 292 383 q 291 352 288 324 q 286 296 283 268 q 280 241 277 211 l 220 211 q 217 241 214 268 q 211 296 208 324 q 206 352 205 383 q 204 414 204 451 l 204 619 l 293 619 z m 248 -12 q 221 -12 201 6 q 181 25 181 56 q 181 87 201 106 q 221 124 248 124 q 276 124 296 106 q 315 87 315 56 q 315 25 296 6 q 276 -12 248 -12 z"},"/":{"x_min":0,"x_max":500,"ha":500,"o":"m 154 -165 l 69 -165 l 348 699 l 431 699 z"},"[":{"x_min":0,"x_max":500,"ha":500,"o":"m 143 699 l 382 699 l 382 634 l 221 634 l 221 -100 l 382 -100 l 382 -165 l 143 -165 z"},"6":{"x_min":0,"x_max":500,"ha":500,"o":"m 54 248 q 54 338 78 408 q 103 477 148 524 q 194 571 259 596 q 324 621 406 622 l 413 552 q 360 551 316 540 q 273 530 239 506 q 205 483 182 446 q 159 409 147 355 q 171 366 200 373 q 228 380 260 380 q 312 380 348 364 q 385 348 407 322 q 429 295 439 260 q 449 225 449 188 q 449 154 438 118 q 427 83 404 54 q 381 24 345 6 q 309 -13 259 -13 q 156 -13 105 56 q 54 125 54 248 z m 251 312 q 219 312 192 306 q 166 300 139 288 q 138 278 138 268 q 138 259 138 248 q 138 209 144 174 q 149 140 162 114 q 176 87 199 72 q 222 56 258 56 q 288 56 308 68 q 328 81 341 100 q 354 119 360 142 q 365 166 365 187 q 365 248 338 280 q 310 312 251 312 z"},"r":{"x_min":0,"x_max":500,"ha":500,"o":"m 107 0 l 107 439 q 209 474 313 474 q 345 474 374 472 q 403 469 438 461 l 423 388 q 391 397 366 400 q 342 402 313 402 q 252 402 189 385 l 189 0 z"},"2":{"x_min":0,"x_max":500,"ha":500,"o":"m 420 461 q 420 429 408 399 q 395 369 374 340 q 354 311 328 283 q 302 255 275 228 q 260 213 240 192 q 220 171 202 149 q 184 127 172 106 q 160 85 160 70 l 445 70 l 445 0 l 70 0 q 69 5 69 10 q 69 16 69 21 q 69 63 83 99 q 97 135 119 167 q 141 199 168 228 q 196 256 223 283 q 245 305 266 326 q 286 347 302 368 q 317 389 326 412 q 336 434 336 458 q 336 485 328 504 q 319 523 304 536 q 290 548 271 554 q 252 560 230 560 q 204 560 182 553 q 161 546 144 536 q 128 526 116 516 q 104 507 98 501 l 57 559 q 65 568 81 581 q 97 594 120 606 q 142 617 170 625 q 198 633 230 633 q 327 633 374 588 q 420 544 420 461 z"},"{":{"x_min":0,"x_max":500,"ha":500,"o":"m 79 299 l 119 299 q 136 299 149 306 q 162 314 170 326 q 179 339 184 354 q 188 370 188 386 l 188 547 q 188 584 196 612 q 203 640 221 660 q 239 679 270 689 q 300 699 346 699 l 427 699 l 427 634 l 342 634 q 300 634 282 615 q 265 596 265 546 l 265 408 q 265 341 245 310 q 225 278 199 267 q 225 255 245 222 q 265 189 265 126 l 265 -12 q 265 -62 283 -81 q 301 -100 343 -100 l 427 -100 l 427 -165 l 346 -165 q 300 -165 270 -155 q 239 -145 221 -126 q 203 -106 196 -78 q 188 -50 188 -13 l 188 148 q 188 163 184 178 q 179 194 170 206 q 162 219 150 227 q 137 235 120 235 l 79 235 z"},"9":{"x_min":0,"x_max":500,"ha":500,"o":"m 447 371 q 447 186 357 92 q 267 -1 86 -2 l 83 68 q 195 68 264 112 q 332 157 354 266 q 330 255 301 248 q 272 242 240 242 q 187 242 151 258 q 115 273 93 300 q 71 326 61 360 q 51 394 51 432 q 51 466 62 502 q 73 537 96 566 q 119 595 155 614 q 191 633 241 633 q 343 633 395 563 q 447 493 447 371 z m 249 310 q 281 310 308 316 q 336 322 362 333 q 363 343 363 352 q 363 361 363 371 q 363 410 358 445 q 352 480 338 506 q 325 532 302 548 q 278 563 242 563 q 212 563 192 550 q 172 538 159 520 q 146 501 140 478 q 135 455 135 434 q 135 373 162 342 q 190 310 249 310 z"}," ":{"x_min":0,"x_max":500,"ha":500,"o":""},"I":{"x_min":0,"x_max":500,"ha":500,"o":"m 291 549 l 291 70 l 411 70 l 411 0 l 89 0 l 89 70 l 209 70 l 209 549 l 89 549 l 89 619 l 411 619 l 411 549 z"},"H":{"x_min":0,"x_max":500,"ha":500,"o":"m 373 619 l 455 619 l 455 0 l 373 0 l 373 288 l 127 288 l 127 0 l 45 0 l 45 619 l 127 619 l 127 358 l 373 358 z"},"4":{"x_min":0,"x_max":500,"ha":500,"o":"m 36 214 q 53 254 82 306 q 112 358 149 414 q 186 469 228 522 q 270 576 313 619 l 393 619 l 393 226 l 466 226 l 466 158 l 393 158 l 393 0 l 313 0 l 313 158 l 36 158 z m 313 521 q 286 492 258 457 q 231 422 205 384 q 179 345 156 305 q 134 265 116 226 l 313 226 z"},"~":{"x_min":0,"x_max":500,"ha":500,"o":"m 463 314 q 460 297 452 275 q 445 253 430 234 q 416 215 394 202 q 372 189 341 189 q 314 189 292 200 q 269 210 248 223 q 224 237 202 251 q 180 265 154 265 q 140 265 130 258 q 120 252 114 242 q 107 232 102 220 q 97 207 94 196 l 37 212 q 40 229 48 251 q 56 273 70 292 q 84 311 106 324 q 127 337 159 337 q 186 337 208 326 q 231 316 252 303 q 276 289 298 275 q 321 261 346 261 q 360 261 370 268 q 380 274 386 284 q 393 294 398 306 q 403 319 406 330 z"},"D":{"x_min":0,"x_max":500,"ha":500,"o":"m 460 310 q 460 224 438 164 q 417 104 380 66 q 342 29 290 12 q 239 -5 179 -5 q 117 -5 54 10 l 54 610 q 117 625 179 625 q 239 625 290 608 q 342 591 380 553 q 417 515 438 455 q 460 395 460 310 z m 136 69 q 161 66 187 66 q 232 66 267 80 q 302 93 326 122 q 350 152 363 198 q 376 245 376 310 q 376 436 328 495 q 279 554 184 554 q 171 554 158 554 q 146 553 136 551 z"},"^":{"x_min":0,"x_max":500,"ha":500,"o":"m 287 619 l 460 315 l 394 281 l 250 533 l 106 281 l 40 315 l 213 619 z"},"0":{"x_min":0,"x_max":500,"ha":500,"o":"m 308 321 q 308 295 292 276 q 277 257 252 257 q 226 257 210 276 q 194 295 194 321 q 194 347 210 367 q 226 387 252 387 q 277 387 292 367 q 308 347 308 321 z m 46 310 q 46 466 100 550 q 153 633 250 633 q 348 633 401 550 q 454 466 454 310 q 454 154 401 70 q 348 -13 250 -13 q 153 -13 100 70 q 46 154 46 310 z m 370 310 q 370 361 364 406 q 358 452 344 486 q 330 520 307 540 q 284 560 250 560 q 216 560 193 540 q 170 520 156 486 q 142 452 136 406 q 130 361 130 310 q 130 259 136 214 q 142 168 156 134 q 170 100 193 80 q 216 60 250 60 q 284 60 307 80 q 330 100 344 134 q 358 168 364 214 q 370 259 370 310 z"},"F":{"x_min":0,"x_max":500,"ha":500,"o":"m 91 0 l 91 619 l 442 619 l 442 549 l 173 549 l 173 356 l 410 356 l 410 287 l 173 287 l 173 0 z"},"`":{"x_min":0,"x_max":500,"ha":500,"o":"m 216 693 l 330 555 l 288 518 l 163 640 z"},"k":{"x_min":0,"x_max":500,"ha":500,"o":"m 238 255 q 265 235 299 204 q 333 174 366 139 q 400 104 430 68 q 460 31 478 0 l 380 0 q 361 31 333 64 q 305 96 274 126 q 242 156 210 181 q 179 206 154 223 l 154 0 l 71 0 l 71 679 l 154 693 l 154 270 q 209 318 264 366 q 319 413 363 464 l 460 464 q 417 413 356 359 q 296 305 238 255 z"},"u":{"x_min":0,"x_max":500,"ha":500,"o":"m 429 13 q 402 6 358 -2 q 313 -10 253 -10 q 200 -10 165 6 q 130 21 108 50 q 86 78 77 117 q 68 156 68 203 l 68 464 l 150 464 l 150 221 q 150 135 176 99 q 201 63 261 63 q 274 63 288 64 q 301 65 313 66 q 325 68 334 70 q 343 71 346 72 l 346 464 l 429 464 z"},"]":{"x_min":0,"x_max":500,"ha":500,"o":"m 357 -165 l 118 -165 l 118 -100 l 279 -100 l 279 634 l 118 634 l 118 699 l 357 699 z"},"U":{"x_min":0,"x_max":500,"ha":500,"o":"m 250 -13 q 195 -13 156 3 q 118 19 94 48 q 70 77 59 119 q 48 161 48 213 l 48 619 l 130 619 l 130 222 q 130 175 138 144 q 147 112 162 93 q 178 74 200 66 q 222 58 250 58 q 278 58 300 66 q 322 74 338 93 q 353 112 362 144 q 370 175 370 222 l 370 619 l 452 619 l 452 213 q 452 161 441 119 q 430 77 406 48 q 382 19 344 3 q 305 -13 250 -13 z"},"o":{"x_min":0,"x_max":500,"ha":500,"o":"m 460 232 q 460 177 444 132 q 429 88 401 56 q 373 24 334 6 q 295 -11 249 -11 q 204 -11 166 6 q 127 24 99 56 q 71 88 56 132 q 40 177 40 232 q 40 287 56 332 q 71 377 99 408 q 127 440 166 458 q 204 475 249 475 q 295 475 334 458 q 373 440 401 408 q 429 377 444 332 q 460 287 460 232 z m 375 232 q 375 311 341 356 q 307 402 249 402 q 192 402 158 356 q 125 311 125 232 q 125 154 158 108 q 192 63 249 63 q 307 63 341 108 q 375 154 375 232 z"},"N":{"x_min":0,"x_max":500,"ha":500,"o":"m 361 0 q 327 83 297 150 q 267 218 240 277 q 212 336 185 388 q 158 441 130 494 l 130 0 l 55 0 l 55 619 l 139 619 q 180 544 210 488 q 241 432 266 380 q 292 327 316 272 q 340 216 370 143 l 370 619 l 445 619 l 445 0 z"},"+":{"x_min":0,"x_max":500,"ha":500,"o":"m 46 298 l 214 298 l 214 482 l 286 482 l 286 298 l 455 298 l 455 228 l 286 228 l 286 43 l 214 43 l 214 228 l 46 228 z"},"G":{"x_min":0,"x_max":500,"ha":500,"o":"m 373 305 l 455 305 l 455 15 q 436 8 394 -2 q 352 -13 295 -13 q 239 -13 193 8 q 147 30 114 71 q 82 112 64 172 q 46 233 46 310 q 46 388 66 448 q 86 508 120 549 q 155 590 201 612 q 247 633 300 633 q 334 633 360 628 q 386 623 404 616 q 423 609 435 602 q 447 594 453 590 l 426 521 q 403 539 372 550 q 340 562 305 562 q 267 562 234 544 q 202 526 179 493 q 156 460 143 414 q 130 367 130 310 q 130 254 142 208 q 153 162 175 129 q 197 96 230 78 q 262 59 304 59 q 333 59 349 63 q 365 67 373 71 z"},"q":{"x_min":0,"x_max":500,"ha":500,"o":"m 125 231 q 125 195 132 164 q 140 134 155 112 q 170 89 194 76 q 217 63 250 63 q 279 63 306 74 q 333 85 347 98 l 347 391 q 336 395 316 398 q 297 401 263 401 q 202 401 164 356 q 125 312 125 231 z m 40 231 q 40 287 56 332 q 72 377 101 408 q 130 440 172 457 q 213 474 263 474 q 317 474 358 466 q 400 457 429 449 l 429 -165 l 346 -165 l 346 18 q 331 8 303 -2 q 275 -11 240 -11 q 193 -11 156 7 q 119 25 94 57 q 68 89 54 134 q 40 178 40 231 z"},"d":{"x_min":0,"x_max":500,"ha":500,"o":"m 346 366 q 332 379 305 390 q 278 402 249 402 q 216 402 192 389 q 169 376 154 354 q 139 331 132 300 q 125 268 125 232 q 125 151 163 107 q 201 63 262 63 q 293 63 314 66 q 336 69 346 72 z m 346 679 l 429 693 l 429 13 q 402 5 360 -3 q 318 -11 262 -11 q 212 -11 171 6 q 130 23 101 54 q 72 86 56 131 q 40 176 40 232 q 40 286 54 330 q 67 375 93 407 q 119 439 156 457 q 192 475 239 475 q 276 475 304 466 q 332 457 346 447 z"},"1":{"x_min":0,"x_max":500,"ha":500,"o":"m 75 491 q 126 511 174 542 q 222 572 263 619 l 321 619 l 321 70 l 438 70 l 438 0 l 105 0 l 105 70 l 239 70 l 239 504 q 228 494 212 484 q 197 473 178 463 q 160 453 140 444 q 120 435 101 429 z"},"5":{"x_min":0,"x_max":500,"ha":500,"o":"m 186 380 q 320 375 381 321 q 442 267 442 176 q 442 135 429 100 q 416 65 388 40 q 361 15 318 1 q 276 -13 218 -13 q 194 -13 170 -10 q 147 -6 126 -1 q 105 4 89 10 q 73 15 66 19 l 82 90 q 98 82 132 71 q 165 60 216 60 q 256 60 283 69 q 310 78 326 94 q 343 109 350 129 q 358 149 358 171 q 358 205 346 232 q 335 258 306 276 q 278 294 228 304 q 179 313 104 313 q 110 357 114 396 q 117 434 120 470 q 122 507 124 543 q 125 579 127 619 l 425 619 l 425 549 l 199 549 q 198 535 196 512 q 195 490 193 465 q 191 440 189 417 q 187 394 186 380 z"}}}
